<svg xmlns="http://www.w3.org/2000/svg" width="24" height="25" viewBox="0 0 24 25" fill="none"><path d="M15.2882 8.90394C15.2882 10.7201 13.8159 12.1924 11.9998 12.1924C10.1836 12.1924 8.71131 10.7201 8.71131 8.90394C8.71131 7.08777 10.1836 5.61548 11.9998 5.61548C13.8159 5.61548 15.2882 7.08777 15.2882 8.90394Z" stroke="white"></path><path d="M11.9998 19.8655C15.2573 19.8655 17.134 19.0252 18.0046 18.4844C18.412 18.2313 18.6128 17.7654 18.5714 17.2827C18.5148 16.6234 18.2844 15.965 18.0499 15.4428C17.742 14.7571 17.0292 14.3847 16.2775 14.3847H7.72205C6.97037 14.3847 6.25757 14.7571 5.94964 15.4428C5.71511 15.965 5.48477 16.6234 5.42819 17.2827C5.38676 17.7654 5.58755 18.2313 5.99493 18.4844C6.86553 19.0252 8.7423 19.8655 11.9998 19.8655Z" stroke="white"></path></svg>