<svg width="140" height="28" viewBox="0 0 140 28" fill="none" xmlns="http://www.w3.org/2000/svg" class="xl:hidden"><mask id="mask0_1446_2456" style="mask-type:luminance" maskUnits="userSpaceOnUse" x="0" y="0" width="140" height="27"><path d="M139.696 0.238037H0.304688V26.9019H139.696V0.238037Z" fill="white"></path></mask><g mask="url(#mask0_1446_2456)"><mask id="mask1_1446_2456" style="mask-type:luminance" maskUnits="userSpaceOnUse" x="0" y="0" width="141" height="27"><path d="M140.305 0.238037H0.304688V26.9019H140.305V0.238037Z" fill="white"></path></mask><g mask="url(#mask1_1446_2456)"><path d="M3.5 7C3.79392 7 4 6.77402 4 6.49918C4 6.22428 3.79392 6 3.5 6C3.20608 6 3 6.22598 3 6.49918C3 6.77237 3.20608 7 3.5 7Z" fill="#005D45"></path><path d="M1.5 7C1.78547 7 2 6.77402 2 6.49918C2 6.22428 1.78379 6 1.5 6C1.19594 6 1 6.22598 1 6.49918C1 6.77237 1.19594 7 1.5 7Z" fill="#005D45"></path><path d="M9.73642 9.08858C9.73642 9.33234 9.96686 9.52372 10.3635 9.52372C10.7602 9.52372 11 9.28001 11 9.01078C11 8.4291 10.2426 8.02838 9.41911 8.02838C8.0574 8.02838 6.8618 8.86278 6.8618 10.0186C6.8618 10.7409 7.27922 11.3316 7.93841 11.6785H4.97494C4.45931 11.6441 4.40453 11.2179 4.40453 10.9832V8.73119C4.40453 8.54877 4.41587 8.32297 4.48197 8.09717H3.93235C3.85491 8.15846 3.87758 8.19289 3.85491 8.22726C3.81148 8.33193 3.7567 8.4441 3.73404 8.4441C3.73404 8.4441 3.66793 8.40968 3.54705 8.34838C3.29396 8.2183 2.87655 8 2.25137 8C0.868819 8 0 8.9824 0 9.98282C0 11.0609 0.86693 12 2.02095 12C2.95399 12 3.44884 11.4691 3.61316 11.0953C3.61316 11.8864 4.22889 11.991 4.97494 12H9.32284C10.0028 12 10.509 11.8265 10.9151 11.5125L10.6412 11.3645C10.356 11.5649 9.99329 11.677 9.52108 11.677C8.43321 11.677 7.96292 10.9293 7.96292 9.92147C7.96292 8.85231 8.4786 8.30506 9.45695 8.30506C10.016 8.30506 10.3238 8.48742 10.4787 8.72223C10.4013 8.71327 10.3352 8.70426 10.2596 8.70426C9.93101 8.70426 9.74404 8.84336 9.74404 9.08707M3.34684 10.9233C3.17119 11.384 2.69901 11.7054 2.16072 11.7054C1.69986 11.7054 0.997258 11.3152 0.997258 10.0366C0.997258 9.14092 1.392 8.30651 2.24948 8.30651C3.34684 8.30651 3.46772 9.13191 3.46772 9.87065C3.46772 10.3312 3.44506 10.6617 3.34684 10.9219" fill="#005D45"></path><path d="M12.9987 12V6L12 6.2342C12.3202 6.36503 12.3281 6.43128 12.3281 6.64766V11.9984H13L12.9987 12Z" fill="#005D45"></path><path d="M15.9983 8.00166L14.7242 8.24069C15.1461 8.37582 15.156 8.44172 15.156 8.67254V11.1071C15.0802 12.9088 14.3895 13.5879 13 13.9621C13.3543 13.9901 13.5654 14 13.6906 14C15.8368 14 16 12.1027 16 10.3868V8L15.9983 8.00166Z" fill="#005D45"></path><path d="M18.5 7C18.7698 7 19 6.77814 19 6.5C19 6.22186 18.7698 6 18.5 6C18.2302 6 18 6.21195 18 6.5C18 6.78811 18.2302 7 18.5 7Z" fill="#005D45"></path><path d="M22.0022 6.67552V10.9435C22.0022 11.5199 21.7416 11.8811 21.1095 11.8811H19.4252C19.5166 11.3821 19.5379 10.8461 19.5379 10.3184V7.88535L18.0462 8.12896C18.5324 8.26676 18.5441 8.334 18.5441 8.56924V11.051C18.4643 12.8876 17.6513 13.5815 16 13.9613C16.4181 13.9899 16.6788 14 16.8149 14C18.3982 14 19.0653 13.2371 19.3357 12.2424H21.3488C22.3096 12.2424 23 11.7937 23 10.9721V6L21.5082 6.24366C22.0062 6.37977 22.0062 6.44871 22.0062 6.67382" fill="#005D45"></path><path d="M24.3281 6.64929V12H25V6L24 6.2342C24.3202 6.36503 24.3281 6.43128 24.3281 6.64766" fill="#005D45"></path><path d="M26 10.742C26 11.662 26.9341 12.2176 27.6627 12.2374H27.7169C28.5091 12.2374 28.836 11.873 29.064 11.5565C28.8585 13.3487 27.6422 13.7329 26.7286 13.9143L26.4689 13.9522C26.8594 13.9802 27.2068 14 27.3601 14C28.5222 14 30 13.5977 30 10.3479V8H29.1741C27.3284 8 26.0018 9.07334 26.0018 10.7403M29.0416 10.5012C29.0416 11.2465 28.5446 11.934 27.8963 11.939C27.2797 11.9159 26.9453 11.2481 26.9453 10.6842C26.9453 9.25634 27.9654 8.2968 28.9219 8.2968H29.0416V10.5012Z" fill="#005D45"></path><path d="M35 8C33.74 8 33 8.98281 33 10.009C33 11.0352 33.74 12 35 12C36.26 12 37 11.0172 37 10.009C37 9.00073 36.2519 8 35 8ZM35 11.7053C34.2421 11.7053 33.9014 11.0965 33.9014 10.009C33.9014 8.92149 34.2421 8.30371 35 8.30371C35.7579 8.30371 36.0904 8.90352 36.0904 10.009C36.0904 11.1145 35.7498 11.7053 35 11.7053Z" fill="#005D45"></path><path d="M42.5001 13C42.2062 13 42 13.2177 42 13.4949C42 13.7721 42.2062 14 42.5001 14C42.794 14 43 13.7721 43 13.4949C43 13.2177 42.794 13 42.5001 13Z" fill="#005D45"></path><path d="M41.4999 13C41.196 13 41 13.2177 41 13.4949C41 13.7721 41.196 14 41.4999 14C41.7854 14 42 13.7721 42 13.4949C42 13.2177 41.7838 13 41.4999 13Z" fill="#005D45"></path><path d="M52.1155 6.70505V11.1931C52.1155 11.7872 51.8799 12.1768 51.3497 12.1768H50.5631C50.1032 12.1768 49.7469 11.7466 49.5731 11.2654C49.5942 11.1526 49.603 11.0292 49.603 10.897C49.603 9.95394 48.9393 8.70406 47.7051 8.70406C46.204 8.70406 45.9495 9.64718 45.7037 10.5991C45.5703 11.112 45.407 11.7255 45.1015 12.0234C44.9786 12.1257 44.8048 12.1574 44.7135 12.1768H43.9077C43.1931 12.1768 42.7647 11.2443 42.7647 10.5991V7.98661L41.4182 8.24223C41.8273 8.38502 41.8676 8.42732 41.8676 8.65299V11.2249C41.8676 11.8189 41.6429 12.1786 41.1022 12.1786H40.3068C39.8785 12.1486 39.6327 11.8612 39.6327 11.3183V6.02996L38 6.10221V6.44065C38.5811 6.44065 38.7356 6.53236 38.7356 6.77915V11.2777C38.7356 12.2508 39.3781 12.5593 40.2454 12.5593H41.2866C41.9185 12.5593 42.5523 12.3742 42.7963 11.759C43.1124 12.2403 43.5513 12.5593 44.0727 12.5593H44.7047C45.2455 12.5593 45.5422 12.3848 45.7757 12.1291C46.0811 12.5188 46.5095 13 47.4382 13C48.4284 13 49.0604 12.4976 49.3572 11.8736C49.7048 12.3248 50.093 12.5593 50.7652 12.5593H51.5096C52.3767 12.5593 53 12.0886 53 11.2266V6L51.6429 6.25556C52.1014 6.40013 52.1116 6.47061 52.1116 6.70683M47.4716 12.6386C46.8396 12.6386 46.3796 12.1168 46.1145 11.789C46.104 11.7678 46.0847 11.7378 46.0636 11.7273C46.2585 11.3588 46.3497 10.9798 46.4411 10.6308L46.4621 10.5691C46.6657 9.76879 46.8712 9.03194 47.5243 9.03194H47.5647C48.309 9.06196 48.6672 9.97506 48.6672 10.9481C48.6672 11.9212 48.1159 12.6386 47.4734 12.6386" fill="#005D45"></path><path d="M54.3279 6.64929V12H55V6L54 6.2342C54.3203 6.36503 54.3279 6.43128 54.3279 6.64766" fill="#005D45"></path><path d="M56 10.742C56 11.662 56.9341 12.2176 57.6629 12.2374H57.7171C58.5094 12.2374 58.8359 11.873 59.0638 11.5565C58.8585 13.3487 57.6403 13.7329 56.7283 13.9143L56.4688 13.9522C56.8594 13.9802 57.2069 14 57.3602 14C58.5222 14 60 13.5977 60 10.3479V8H59.1742C57.3282 8 56.0016 9.07334 56.0016 10.7403M59.0417 10.5012C59.0417 11.2465 58.5444 11.934 57.8961 11.939C57.2797 11.9159 56.9455 11.2481 56.9455 10.6842C56.9455 9.25634 57.9652 8.2968 58.922 8.2968H59.0417V10.5012Z" fill="#005D45"></path><path d="M64.5 7C64.785 7 65 6.77402 65 6.49918C65 6.22428 64.7838 6 64.5 6C64.1961 6 64 6.22598 64 6.49918C64 6.77237 64.1961 7 64.5 7Z" fill="#005D45"></path><path d="M66.5003 7C66.7937 7 67 6.77402 67 6.49918C67 6.22428 66.7937 6 66.5003 6C66.2063 6 66 6.22598 66 6.49918C66 6.77237 66.2063 7 66.5003 7Z" fill="#005D45"></path><path d="M71 6.64045H70.4782C70.0671 6.64045 69.7901 6.1215 69.7901 5.78137C69.7901 5.55591 69.9235 5.29538 70.1127 5.29538C70.1683 5.29538 70.2582 5.30709 70.3018 5.37322C70.214 5.45282 70.1355 5.57723 70.1355 5.64532C70.1355 5.8144 70.2911 5.9271 70.503 5.9271C70.715 5.9271 70.8699 5.85908 70.8699 5.59862C70.8699 5.26046 70.5466 5 70.1355 5C69.5466 5 69.2126 5.4179 69.2126 5.91546C69.2126 6.19731 69.4339 6.46941 69.6345 6.63849H69.1341L69 7H71V6.63849V6.64045Z" fill="#005D45"></path><path d="M74.0012 13C73.4123 13 73 13.2177 73 13.4949C73 13.7721 73.4123 14 74.0012 14C74.5877 14 75 13.7721 75 13.4949C75 13.2177 74.5877 13 74.0012 13Z" fill="#005D45"></path><path d="M72.5 13C72.1961 13 72 13.2177 72 13.4949C72 13.7721 72.1961 14 72.5 14C72.7855 14 73 13.7721 73 13.4949C73 13.2177 72.7832 13 72.5 13Z" fill="#005D45"></path><path d="M77.5 13C77.23 13 77 13.2219 77 13.4999C77 13.7781 77.23 14 77.5 14C77.7695 14 78 13.7881 78 13.4999C78 13.2119 77.7695 13 77.5 13Z" fill="#005D45"></path><path d="M80.0956 6.64446V10.7467C80.0956 11.3007 79.8594 11.648 79.287 11.648H78.9593C78.2416 11.648 77.812 10.7936 77.812 10.2025V7.8089L76.46 8.0431C76.8711 8.17393 76.9119 8.21268 76.9119 8.41938V10.7758C76.9119 11.3201 76.6856 11.6495 76.1428 11.6495H75.2829C74.5658 11.6495 74.1356 10.7952 74.1356 10.204V7.81053L72.7842 8.04473C73.1947 8.17556 73.2355 8.21426 73.2355 8.42101V10.7774C73.2355 11.3217 73.0098 11.6512 72.467 11.6512H71.8927C71.1756 11.6512 70.7454 10.7968 70.7454 10.2057V7.81216L69.3934 8.04631C69.8039 8.17713 69.8453 8.21594 69.8453 8.42264V10.779C69.8453 11.3233 69.619 11.6528 69.0762 11.6528H67.642C67.1611 11.6156 67.1098 11.1554 67.1098 10.9018V8.4695C67.1098 8.27241 67.1203 8.02859 67.1821 7.78466H66.669C66.5967 7.85091 66.6183 7.88804 66.5967 7.92521C66.5565 8.03827 66.5052 8.15936 66.4842 8.15936C66.4842 8.15936 66.4223 8.12224 66.3098 8.05598C66.0737 7.91548 65.6842 7.6797 65.1006 7.6797C63.8105 7.6797 63 8.74082 63 9.82129C63 10.9858 63.8092 12 64.8855 12C65.7565 12 66.2183 11.4267 66.3716 11.0229C66.3716 11.8773 66.9459 11.9904 67.642 12H69.2598C69.8941 12 70.5302 11.8304 70.775 11.2668C71.0804 11.6899 71.4996 11.9726 71.9947 11.9952V12H72.65C73.2849 12 73.9204 11.8304 74.1658 11.2668C74.483 11.7077 74.9231 12 75.4467 12H76.3277C76.9626 12 77.5987 11.8304 77.8435 11.2668C78.1483 11.6899 78.568 11.9726 79.0626 11.9952V12H79.5033C80.3744 12 81 11.5688 81 10.779V6L79.648 6.23421C80.0993 6.36503 80.0993 6.43123 80.0993 6.64766M66.1231 10.8323C65.9587 11.3297 65.5185 11.677 65.0159 11.677C64.5863 11.677 63.931 11.2555 63.931 9.87455C63.931 8.9072 64.2988 8.00592 65.0988 8.00592C66.1231 8.00592 66.2356 8.89746 66.2356 9.6953C66.2356 10.1927 66.2146 10.5497 66.1231 10.8307" fill="#005D45"></path><path d="M82.6565 6.64929V12H84V6L82 6.2342C82.64 6.36503 82.6565 6.43128 82.6565 6.64766" fill="#005D45"></path><path d="M89.5006 7C89.7855 7 90 6.77408 90 6.49918C90 6.22428 89.7838 6 89.5006 6C89.2168 6 89 6.21588 89 6.49918C89 6.78248 89.2062 7 89.5006 7Z" fill="#005D45"></path><path d="M89 8C87.7404 8 87 8.98281 87 10.009C87 11.0352 87.7387 12 89 12C90.2619 12 91 11.0172 91 10.009C91 9.00073 90.2521 8 89 8ZM89 11.7053C88.2419 11.7053 87.9017 11.0965 87.9017 10.009C87.9017 8.92149 88.2419 8.30371 89 8.30371C89.7581 8.30371 90.0903 8.90352 90.0903 10.009C90.0903 11.1145 89.7496 11.7053 89 11.7053Z" fill="#005D45"></path><path d="M88.4955 7C88.792 7 89 6.77408 89 6.49918C89 6.22428 88.792 6 88.4955 6C88.199 6 88 6.21588 88 6.49918C88 6.78248 88.1972 7 88.4955 7Z" fill="#005D45"></path><path d="M93.1557 8.67254V11.1071C93.08 12.9088 92.3896 13.5896 91 13.9621C91.3545 13.9901 91.565 14 91.6904 14C93.8364 14 94 12.1027 94 10.3868V8L92.7261 8.23897C93.1476 8.37421 93.1575 8.44011 93.1575 8.67088" fill="#005D45"></path><path d="M96.9982 12V6L95 6.2342C95.6409 6.36503 95.6565 6.43128 95.6565 6.64766V11.9984H97L96.9982 12Z" fill="#005D45"></path><path d="M99.1559 8.66119V11.0965C99.0796 12.8986 98.3899 13.5779 97 13.9522C97.3544 13.9802 97.5654 14 97.6909 14C99.8364 14 100 12.0923 100 10.3776V8L98.7258 8.2391C99.1478 8.36444 99.1576 8.44024 99.1576 8.66119" fill="#005D45"></path><path d="M99.505 6C99.2323 6 99 6.21195 99 6.5C99 6.78811 99.2323 7 99.505 7C99.7777 7 100 6.77814 100 6.5C100 6.22186 99.7677 6 99.505 6Z" fill="#005D45"></path><path d="M104.173 8.00161C102.327 8.00161 101 9.07501 101 10.742C101 11.662 101.934 12.2176 102.663 12.2374H102.717C103.51 12.2374 103.837 11.8731 104.064 11.5565C103.858 13.3487 102.641 13.7329 101.729 13.9142L101.469 13.9522C101.859 13.9802 102.207 14 102.36 14C103.522 14 105 13.5977 105 10.3479V8H104.174L104.173 8.00161ZM104.042 10.5029C104.042 11.2482 103.545 11.9357 102.897 11.9406C102.28 11.9176 101.946 11.2498 101.946 10.6859C101.946 9.25801 102.966 8.29841 103.922 8.29841H104.042V10.5029Z" fill="#005D45"></path></g></g><path d="M3.8736 17.664V21H3.3264V18.7152L2.3088 21H1.9296L0.9072 18.7152V21H0.36V17.664H0.9504L2.1216 20.28L3.288 17.664H3.8736ZM4.87121 18.0048C4.77201 18.0048 4.68881 17.9712 4.62161 17.904C4.55441 17.8368 4.52081 17.7536 4.52081 17.6544C4.52081 17.5552 4.55441 17.472 4.62161 17.4048C4.68881 17.3376 4.77201 17.304 4.87121 17.304C4.96721 17.304 5.04881 17.3376 5.11601 17.4048C5.18321 17.472 5.21681 17.5552 5.21681 17.6544C5.21681 17.7536 5.18321 17.8368 5.11601 17.904C5.04881 17.9712 4.96721 18.0048 4.87121 18.0048ZM5.14001 18.3552V21H4.59281V18.3552H5.14001ZM7.19284 18.312C7.40084 18.312 7.58644 18.3552 7.74964 18.4416C7.91604 18.528 8.04564 18.656 8.13844 18.8256C8.23124 18.9952 8.27764 19.2 8.27764 19.44V21H7.73524V19.5216C7.73524 19.2848 7.67604 19.104 7.55764 18.9792C7.43924 18.8512 7.27764 18.7872 7.07284 18.7872C6.86804 18.7872 6.70484 18.8512 6.58324 18.9792C6.46484 19.104 6.40564 19.2848 6.40564 19.5216V21H5.85844V18.3552H6.40564V18.6576C6.49524 18.5488 6.60884 18.464 6.74644 18.4032C6.88724 18.3424 7.03604 18.312 7.19284 18.312ZM9.25403 18.0048C9.15483 18.0048 9.07163 17.9712 9.00443 17.904C8.93723 17.8368 8.90363 17.7536 8.90363 17.6544C8.90363 17.5552 8.93723 17.472 9.00443 17.4048C9.07163 17.3376 9.15483 17.304 9.25403 17.304C9.35003 17.304 9.43163 17.3376 9.49883 17.4048C9.56603 17.472 9.59963 17.5552 9.59963 17.6544C9.59963 17.7536 9.56603 17.8368 9.49883 17.904C9.43163 17.9712 9.35003 18.0048 9.25403 18.0048ZM9.52283 18.3552V21H8.97563V18.3552H9.52283ZM11.2013 21.0432C10.9933 21.0432 10.8061 21.0064 10.6397 20.9328C10.4765 20.856 10.3469 20.7536 10.2509 20.6256C10.1549 20.4944 10.1037 20.3488 10.0973 20.1888H10.6637C10.6733 20.3008 10.7261 20.3952 10.8221 20.472C10.9213 20.5456 11.0445 20.5824 11.1917 20.5824C11.3453 20.5824 11.4637 20.5536 11.5469 20.496C11.6333 20.4352 11.6765 20.3584 11.6765 20.2656C11.6765 20.1664 11.6285 20.0928 11.5325 20.0448C11.4397 19.9968 11.2909 19.944 11.0861 19.8864C10.8877 19.832 10.7261 19.7792 10.6013 19.728C10.4765 19.6768 10.3677 19.5984 10.2749 19.4928C10.1853 19.3872 10.1405 19.248 10.1405 19.0752C10.1405 18.9344 10.1821 18.8064 10.2653 18.6912C10.3485 18.5728 10.4669 18.48 10.6205 18.4128C10.7773 18.3456 10.9565 18.312 11.1581 18.312C11.4589 18.312 11.7005 18.3888 11.8829 18.5424C12.0685 18.6928 12.1677 18.8992 12.1805 19.1616H11.6333C11.6237 19.0432 11.5757 18.9488 11.4893 18.8784C11.4029 18.808 11.2861 18.7728 11.1389 18.7728C10.9949 18.7728 10.8845 18.8 10.8077 18.8544C10.7309 18.9088 10.6925 18.9808 10.6925 19.0704C10.6925 19.1408 10.7181 19.2 10.7693 19.248C10.8205 19.296 10.8829 19.3344 10.9565 19.3632C11.0301 19.3888 11.1389 19.4224 11.2829 19.464C11.4749 19.5152 11.6317 19.568 11.7533 19.6224C11.8781 19.6736 11.9853 19.7504 12.0749 19.8528C12.1645 19.9552 12.2109 20.0912 12.2141 20.2608C12.2141 20.4112 12.1725 20.5456 12.0893 20.664C12.0061 20.7824 11.8877 20.8752 11.7341 20.9424C11.5837 21.0096 11.4061 21.0432 11.2013 21.0432ZM13.4437 18.8016V20.2656C13.4437 20.3648 13.4661 20.4368 13.5109 20.4816C13.5589 20.5232 13.6389 20.544 13.7509 20.544H14.0869V21H13.6549C13.4085 21 13.2197 20.9424 13.0885 20.8272C12.9573 20.712 12.8917 20.5248 12.8917 20.2656V18.8016H12.5797V18.3552H12.8917V17.6976H13.4437V18.3552H14.0869V18.8016H13.4437ZM15.1385 18.7392C15.2185 18.6048 15.3241 18.5008 15.4553 18.4272C15.5897 18.3504 15.7481 18.312 15.9305 18.312V18.8784H15.7913C15.5769 18.8784 15.4137 18.9328 15.3017 19.0416C15.1929 19.1504 15.1385 19.3392 15.1385 19.608V21H14.5913V18.3552H15.1385V18.7392ZM18.8142 18.3552L17.1918 22.2432H16.6254L17.163 20.9568L16.1214 18.3552H16.731L17.475 20.3712L18.2478 18.3552H18.8142ZM21.6213 21.0432C21.3717 21.0432 21.1461 20.9872 20.9445 20.8752C20.7429 20.76 20.5845 20.6 20.4693 20.3952C20.3541 20.1872 20.2965 19.9472 20.2965 19.6752C20.2965 19.4064 20.3557 19.168 20.4741 18.96C20.5925 18.752 20.7541 18.592 20.9589 18.48C21.1637 18.368 21.3925 18.312 21.6453 18.312C21.8981 18.312 22.1269 18.368 22.3317 18.48C22.5365 18.592 22.6981 18.752 22.8165 18.96C22.9349 19.168 22.9941 19.4064 22.9941 19.6752C22.9941 19.944 22.9333 20.1824 22.8117 20.3904C22.6901 20.5984 22.5237 20.76 22.3125 20.8752C22.1045 20.9872 21.8741 21.0432 21.6213 21.0432ZM21.6213 20.568C21.7621 20.568 21.8933 20.5344 22.0149 20.4672C22.1397 20.4 22.2405 20.2992 22.3173 20.1648C22.3941 20.0304 22.4325 19.8672 22.4325 19.6752C22.4325 19.4832 22.3957 19.3216 22.3221 19.1904C22.2485 19.056 22.1509 18.9552 22.0293 18.888C21.9077 18.8208 21.7765 18.7872 21.6357 18.7872C21.4949 18.7872 21.3637 18.8208 21.2421 18.888C21.1237 18.9552 21.0293 19.056 20.9589 19.1904C20.8885 19.3216 20.8533 19.4832 20.8533 19.6752C20.8533 19.96 20.9253 20.1808 21.0693 20.3376C21.2165 20.4912 21.4005 20.568 21.6213 20.568ZM24.6438 18.8016H24.1542V21H23.6022V18.8016H23.2902V18.3552H23.6022V18.168C23.6022 17.864 23.6822 17.6432 23.8422 17.5056C24.0054 17.3648 24.2598 17.2944 24.6054 17.2944V17.7504C24.439 17.7504 24.3222 17.7824 24.255 17.8464C24.1878 17.9072 24.1542 18.0144 24.1542 18.168V18.3552H24.6438V18.8016ZM26.9228 18.1056V19.0848H28.0748V19.5312H26.9228V20.5536H28.2188V21H26.3756V17.6592H28.2188V18.1056H26.9228ZM30.2272 18.312C30.4352 18.312 30.6208 18.3552 30.784 18.4416C30.9504 18.528 31.08 18.656 31.1728 18.8256C31.2656 18.9952 31.312 19.2 31.312 19.44V21H30.7696V19.5216C30.7696 19.2848 30.7104 19.104 30.592 18.9792C30.4736 18.8512 30.312 18.7872 30.1072 18.7872C29.9024 18.7872 29.7392 18.8512 29.6176 18.9792C29.4992 19.104 29.44 19.2848 29.44 19.5216V21H28.8928V18.3552H29.44V18.6576C29.5296 18.5488 29.6432 18.464 29.7808 18.4032C29.9216 18.3424 30.0704 18.312 30.2272 18.312ZM33.0324 20.5104L33.7812 18.3552H34.362L33.354 21H32.7012L31.698 18.3552H32.2836L33.0324 20.5104ZM35.054 18.0048C34.9548 18.0048 34.8716 17.9712 34.8044 17.904C34.7372 17.8368 34.7036 17.7536 34.7036 17.6544C34.7036 17.5552 34.7372 17.472 34.8044 17.4048C34.8716 17.3376 34.9548 17.304 35.054 17.304C35.15 17.304 35.2316 17.3376 35.2988 17.4048C35.366 17.472 35.3996 17.5552 35.3996 17.6544C35.3996 17.7536 35.366 17.8368 35.2988 17.904C35.2316 17.9712 35.15 18.0048 35.054 18.0048ZM35.3228 18.3552V21H34.7756V18.3552H35.3228ZM36.5885 18.7392C36.6685 18.6048 36.7741 18.5008 36.9053 18.4272C37.0397 18.3504 37.1981 18.312 37.3805 18.312V18.8784H37.2413C37.0269 18.8784 36.8637 18.9328 36.7517 19.0416C36.6429 19.1504 36.5885 19.3392 36.5885 19.608V21H36.0413V18.3552H36.5885V18.7392ZM39.0306 21.0432C38.781 21.0432 38.5554 20.9872 38.3538 20.8752C38.1522 20.76 37.9938 20.6 37.8786 20.3952C37.7634 20.1872 37.7058 19.9472 37.7058 19.6752C37.7058 19.4064 37.765 19.168 37.8834 18.96C38.0018 18.752 38.1634 18.592 38.3682 18.48C38.573 18.368 38.8018 18.312 39.0546 18.312C39.3074 18.312 39.5362 18.368 39.741 18.48C39.9458 18.592 40.1074 18.752 40.2258 18.96C40.3442 19.168 40.4034 19.4064 40.4034 19.6752C40.4034 19.944 40.3426 20.1824 40.221 20.3904C40.0994 20.5984 39.933 20.76 39.7218 20.8752C39.5138 20.9872 39.2834 21.0432 39.0306 21.0432ZM39.0306 20.568C39.1714 20.568 39.3026 20.5344 39.4242 20.4672C39.549 20.4 39.6498 20.2992 39.7266 20.1648C39.8034 20.0304 39.8418 19.8672 39.8418 19.6752C39.8418 19.4832 39.805 19.3216 39.7314 19.1904C39.6578 19.056 39.5602 18.9552 39.4386 18.888C39.317 18.8208 39.1858 18.7872 39.045 18.7872C38.9042 18.7872 38.773 18.8208 38.6514 18.888C38.533 18.9552 38.4386 19.056 38.3682 19.1904C38.2978 19.3216 38.2626 19.4832 38.2626 19.6752C38.2626 19.96 38.3346 20.1808 38.4786 20.3376C38.6258 20.4912 38.8098 20.568 39.0306 20.568ZM42.2788 18.312C42.4868 18.312 42.6724 18.3552 42.8356 18.4416C43.002 18.528 43.1316 18.656 43.2244 18.8256C43.3172 18.9952 43.3636 19.2 43.3636 19.44V21H42.8212V19.5216C42.8212 19.2848 42.762 19.104 42.6436 18.9792C42.5252 18.8512 42.3636 18.7872 42.1588 18.7872C41.954 18.7872 41.7908 18.8512 41.6692 18.9792C41.5508 19.104 41.4916 19.2848 41.4916 19.5216V21H40.9444V18.3552H41.4916V18.6576C41.5812 18.5488 41.6948 18.464 41.8324 18.4032C41.9732 18.3424 42.122 18.312 42.2788 18.312ZM47.2632 18.312C47.4712 18.312 47.6568 18.3552 47.82 18.4416C47.9864 18.528 48.116 18.656 48.2088 18.8256C48.3048 18.9952 48.3528 19.2 48.3528 19.44V21H47.8104V19.5216C47.8104 19.2848 47.7512 19.104 47.6328 18.9792C47.5144 18.8512 47.3528 18.7872 47.148 18.7872C46.9432 18.7872 46.78 18.8512 46.6584 18.9792C46.54 19.104 46.4808 19.2848 46.4808 19.5216V21H45.9384V19.5216C45.9384 19.2848 45.8792 19.104 45.7608 18.9792C45.6424 18.8512 45.4808 18.7872 45.276 18.7872C45.0712 18.7872 44.908 18.8512 44.7864 18.9792C44.668 19.104 44.6088 19.2848 44.6088 19.5216V21H44.0616V18.3552H44.6088V18.6576C44.6984 18.5488 44.812 18.464 44.9496 18.4032C45.0872 18.3424 45.2344 18.312 45.3912 18.312C45.6024 18.312 45.7912 18.3568 45.9576 18.4464C46.124 18.536 46.252 18.6656 46.3416 18.8352C46.4216 18.6752 46.5464 18.5488 46.716 18.456C46.8856 18.36 47.068 18.312 47.2632 18.312ZM51.4731 19.6128C51.4731 19.712 51.4667 19.8016 51.4539 19.8816H49.4331C49.4491 20.0928 49.5275 20.2624 49.6683 20.3904C49.8091 20.5184 49.9819 20.5824 50.1867 20.5824C50.4811 20.5824 50.6891 20.4592 50.8107 20.2128H51.4011C51.3211 20.456 51.1755 20.656 50.9643 20.8128C50.7563 20.9664 50.4971 21.0432 50.1867 21.0432C49.9339 21.0432 49.7067 20.9872 49.5051 20.8752C49.3067 20.76 49.1499 20.6 49.0347 20.3952C48.9227 20.1872 48.8667 19.9472 48.8667 19.6752C48.8667 19.4032 48.9211 19.1648 49.0299 18.96C49.1419 18.752 49.2971 18.592 49.4955 18.48C49.6971 18.368 49.9275 18.312 50.1867 18.312C50.4363 18.312 50.6587 18.3664 50.8539 18.4752C51.0491 18.584 51.2011 18.7376 51.3099 18.936C51.4187 19.1312 51.4731 19.3568 51.4731 19.6128ZM50.9019 19.44C50.8987 19.2384 50.8267 19.0768 50.6859 18.9552C50.5451 18.8336 50.3707 18.7728 50.1627 18.7728C49.9739 18.7728 49.8123 18.8336 49.6779 18.9552C49.5435 19.0736 49.4635 19.2352 49.4379 19.44H50.9019ZM53.346 18.312C53.554 18.312 53.7396 18.3552 53.9028 18.4416C54.0692 18.528 54.1988 18.656 54.2916 18.8256C54.3844 18.9952 54.4308 19.2 54.4308 19.44V21H53.8884V19.5216C53.8884 19.2848 53.8292 19.104 53.7108 18.9792C53.5924 18.8512 53.4308 18.7872 53.226 18.7872C53.0212 18.7872 52.858 18.8512 52.7364 18.9792C52.618 19.104 52.5588 19.2848 52.5588 19.5216V21H52.0116V18.3552H52.5588V18.6576C52.6484 18.5488 52.762 18.464 52.8996 18.4032C53.0404 18.3424 53.1892 18.312 53.346 18.312ZM55.7672 18.8016V20.2656C55.7672 20.3648 55.7896 20.4368 55.8344 20.4816C55.8824 20.5232 55.9624 20.544 56.0744 20.544H56.4104V21H55.9784C55.732 21 55.5432 20.9424 55.412 20.8272C55.2808 20.712 55.2152 20.5248 55.2152 20.2656V18.8016H54.9032V18.3552H55.2152V17.6976H55.7672V18.3552H56.4104V18.8016H55.7672ZM62.5056 17.664L61.5168 21H60.8976L60.1968 18.4752L59.4528 21L58.8384 21.0048L57.8928 17.664H58.4736L59.1648 20.3808L59.9136 17.664H60.528L61.224 20.3664L61.92 17.664H62.5056ZM62.7745 19.6656C62.7745 19.4 62.8289 19.1648 62.9377 18.96C63.0497 18.7552 63.2001 18.5968 63.3889 18.4848C63.5809 18.3696 63.7921 18.312 64.0225 18.312C64.2305 18.312 64.4113 18.3536 64.5649 18.4368C64.7217 18.5168 64.8465 18.6176 64.9393 18.7392V18.3552H65.4913V21H64.9393V20.6064C64.8465 20.7312 64.7201 20.8352 64.5601 20.9184C64.4001 21.0016 64.2177 21.0432 64.0129 21.0432C63.7857 21.0432 63.5777 20.9856 63.3889 20.8704C63.2001 20.752 63.0497 20.5888 62.9377 20.3808C62.8289 20.1696 62.7745 19.9312 62.7745 19.6656ZM64.9393 19.6752C64.9393 19.4928 64.9009 19.3344 64.8241 19.2C64.7505 19.0656 64.6529 18.9632 64.5313 18.8928C64.4097 18.8224 64.2785 18.7872 64.1377 18.7872C63.9969 18.7872 63.8657 18.8224 63.7441 18.8928C63.6225 18.96 63.5233 19.0608 63.4465 19.1952C63.3729 19.3264 63.3361 19.4832 63.3361 19.6656C63.3361 19.848 63.3729 20.008 63.4465 20.1456C63.5233 20.2832 63.6225 20.3888 63.7441 20.4624C63.8689 20.5328 64.0001 20.568 64.1377 20.568C64.2785 20.568 64.4097 20.5328 64.5313 20.4624C64.6529 20.392 64.7505 20.2896 64.8241 20.1552C64.9009 20.0176 64.9393 19.8576 64.9393 19.6752ZM66.8484 18.8016V20.2656C66.8484 20.3648 66.8708 20.4368 66.9156 20.4816C66.9636 20.5232 67.0436 20.544 67.1556 20.544H67.4916V21H67.0596C66.8132 21 66.6244 20.9424 66.4932 20.8272C66.362 20.712 66.2964 20.5248 66.2964 20.2656V18.8016H65.9844V18.3552H66.2964V17.6976H66.8484V18.3552H67.4916V18.8016H66.8484ZM70.4199 19.6128C70.4199 19.712 70.4135 19.8016 70.4007 19.8816H68.3799C68.3959 20.0928 68.4743 20.2624 68.6151 20.3904C68.7559 20.5184 68.9287 20.5824 69.1335 20.5824C69.4279 20.5824 69.6359 20.4592 69.7575 20.2128H70.3479C70.2679 20.456 70.1223 20.656 69.9111 20.8128C69.7031 20.9664 69.4439 21.0432 69.1335 21.0432C68.8807 21.0432 68.6535 20.9872 68.4519 20.8752C68.2535 20.76 68.0967 20.6 67.9815 20.3952C67.8695 20.1872 67.8135 19.9472 67.8135 19.6752C67.8135 19.4032 67.8679 19.1648 67.9767 18.96C68.0887 18.752 68.2439 18.592 68.4423 18.48C68.6439 18.368 68.8743 18.312 69.1335 18.312C69.3831 18.312 69.6055 18.3664 69.8007 18.4752C69.9959 18.584 70.1479 18.7376 70.2567 18.936C70.3655 19.1312 70.4199 19.3568 70.4199 19.6128ZM69.8487 19.44C69.8455 19.2384 69.7735 19.0768 69.6327 18.9552C69.4919 18.8336 69.3175 18.7728 69.1095 18.7728C68.9207 18.7728 68.7591 18.8336 68.6247 18.9552C68.4903 19.0736 68.4103 19.2352 68.3847 19.44H69.8487ZM71.5056 18.7392C71.5856 18.6048 71.6912 18.5008 71.8224 18.4272C71.9568 18.3504 72.1152 18.312 72.2976 18.312V18.8784H72.1584C71.944 18.8784 71.7808 18.9328 71.6688 19.0416C71.56 19.1504 71.5056 19.3392 71.5056 19.608V21H70.9584V18.3552H71.5056V18.7392ZM76.6251 21L76.2123 20.5872C76.0523 20.7472 75.8779 20.8672 75.6891 20.9472C75.5003 21.024 75.2891 21.0624 75.0555 21.0624C74.8187 21.0624 74.6091 21.0208 74.4267 20.9376C74.2443 20.8544 74.1035 20.736 74.0043 20.5824C73.9051 20.4256 73.8555 20.2448 73.8555 20.04C73.8555 19.8096 73.9211 19.6048 74.0523 19.4256C74.1835 19.2432 74.3787 19.0992 74.6379 18.9936C74.5451 18.8816 74.4795 18.7776 74.4411 18.6816C74.4027 18.5824 74.3835 18.4736 74.3835 18.3552C74.3835 18.208 74.4203 18.0768 74.4939 17.9616C74.5707 17.8464 74.6795 17.7552 74.8203 17.688C74.9611 17.6208 75.1243 17.5872 75.3099 17.5872C75.4987 17.5872 75.6587 17.624 75.7899 17.6976C75.9243 17.768 76.0235 17.8656 76.0875 17.9904C76.1547 18.1152 76.1819 18.2544 76.1691 18.408H75.6219C75.6251 18.2896 75.5963 18.1984 75.5355 18.1344C75.4747 18.0672 75.3915 18.0336 75.2859 18.0336C75.1803 18.0336 75.0939 18.0656 75.0267 18.1296C74.9627 18.1904 74.9307 18.2656 74.9307 18.3552C74.9307 18.4416 74.9547 18.528 75.0027 18.6144C75.0539 18.6976 75.1419 18.8064 75.2667 18.9408L76.1499 19.8192L76.4907 19.2576H77.0811L76.6491 19.9968L76.5291 20.1936L77.3403 21H76.6251ZM75.0555 20.5968C75.3563 20.5968 75.6219 20.4736 75.8523 20.2272L74.9691 19.3392C74.5915 19.4896 74.4027 19.7168 74.4027 20.0208C74.4027 20.184 74.4635 20.3216 74.5851 20.4336C74.7067 20.5424 74.8635 20.5968 75.0555 20.5968ZM80.9571 20.3184H79.5603L79.3203 21H78.7491L79.9443 17.6592H80.5779L81.7731 21H81.1971L80.9571 20.3184ZM80.8035 19.872L80.2611 18.3216L79.7139 19.872H80.8035ZM83.3584 18.312C83.5632 18.312 83.744 18.3536 83.9008 18.4368C84.0608 18.5168 84.1856 18.6176 84.2752 18.7392V18.3552H84.8272V21.0432C84.8272 21.2864 84.776 21.5024 84.6736 21.6912C84.5712 21.8832 84.4224 22.0336 84.2272 22.1424C84.0352 22.2512 83.8048 22.3056 83.536 22.3056C83.1776 22.3056 82.88 22.2208 82.6432 22.0512C82.4064 21.8848 82.272 21.6576 82.24 21.3696H82.7824C82.824 21.5072 82.912 21.6176 83.0464 21.7008C83.184 21.7872 83.3472 21.8304 83.536 21.8304C83.7568 21.8304 83.9344 21.7632 84.0688 21.6288C84.2064 21.4944 84.2752 21.2992 84.2752 21.0432V20.6016C84.1824 20.7264 84.056 20.832 83.896 20.9184C83.7392 21.0016 83.56 21.0432 83.3584 21.0432C83.128 21.0432 82.9168 20.9856 82.7248 20.8704C82.536 20.752 82.3856 20.5888 82.2736 20.3808C82.1648 20.1696 82.1104 19.9312 82.1104 19.6656C82.1104 19.4 82.1648 19.1648 82.2736 18.96C82.3856 18.7552 82.536 18.5968 82.7248 18.4848C82.9168 18.3696 83.128 18.312 83.3584 18.312ZM84.2752 19.6752C84.2752 19.4928 84.2368 19.3344 84.16 19.2C84.0864 19.0656 83.9888 18.9632 83.8672 18.8928C83.7456 18.8224 83.6144 18.7872 83.4736 18.7872C83.3328 18.7872 83.2016 18.8224 83.08 18.8928C82.9584 18.96 82.8592 19.0608 82.7824 19.1952C82.7088 19.3264 82.672 19.4832 82.672 19.6656C82.672 19.848 82.7088 20.008 82.7824 20.1456C82.8592 20.2832 82.9584 20.3888 83.08 20.4624C83.2048 20.5328 83.336 20.568 83.4736 20.568C83.6144 20.568 83.7456 20.5328 83.8672 20.4624C83.9888 20.392 84.0864 20.2896 84.16 20.1552C84.2368 20.0176 84.2752 19.8576 84.2752 19.6752ZM86.0931 18.7392C86.1731 18.6048 86.2787 18.5008 86.4099 18.4272C86.5443 18.3504 86.7027 18.312 86.8851 18.312V18.8784H86.7459C86.5315 18.8784 86.3683 18.9328 86.2563 19.0416C86.1475 19.1504 86.0931 19.3392 86.0931 19.608V21H85.5459V18.3552H86.0931V18.7392ZM87.6665 18.0048C87.5673 18.0048 87.4841 17.9712 87.4169 17.904C87.3497 17.8368 87.3161 17.7536 87.3161 17.6544C87.3161 17.5552 87.3497 17.472 87.4169 17.4048C87.4841 17.3376 87.5673 17.304 87.6665 17.304C87.7625 17.304 87.8441 17.3376 87.9113 17.4048C87.9785 17.472 88.0121 17.5552 88.0121 17.6544C88.0121 17.7536 87.9785 17.8368 87.9113 17.904C87.8441 17.9712 87.7625 18.0048 87.6665 18.0048ZM87.9353 18.3552V21H87.3881V18.3552H87.9353ZM88.4714 19.6752C88.4714 19.4032 88.5258 19.1648 88.6346 18.96C88.7466 18.752 88.9002 18.592 89.0954 18.48C89.2906 18.368 89.5146 18.312 89.7674 18.312C90.0874 18.312 90.3514 18.3888 90.5594 18.5424C90.7706 18.6928 90.913 18.9088 90.9866 19.1904H90.3962C90.3482 19.0592 90.2714 18.9568 90.1658 18.8832C90.0602 18.8096 89.9274 18.7728 89.7674 18.7728C89.5434 18.7728 89.3642 18.8528 89.2298 19.0128C89.0986 19.1696 89.033 19.3904 89.033 19.6752C89.033 19.96 89.0986 20.1824 89.2298 20.3424C89.3642 20.5024 89.5434 20.5824 89.7674 20.5824C90.0842 20.5824 90.2938 20.4432 90.3962 20.1648H90.9866C90.9098 20.4336 90.7658 20.648 90.5546 20.808C90.3434 20.9648 90.081 21.0432 89.7674 21.0432C89.5146 21.0432 89.2906 20.9872 89.0954 20.8752C88.9002 20.76 88.7466 20.6 88.6346 20.3952C88.5258 20.1872 88.4714 19.9472 88.4714 19.6752ZM93.9271 18.3552V21H93.3799V20.688C93.2935 20.7968 93.1799 20.8832 93.0391 20.9472C92.9015 21.008 92.7543 21.0384 92.5975 21.0384C92.3895 21.0384 92.2023 20.9952 92.0359 20.9088C91.8727 20.8224 91.7431 20.6944 91.6471 20.5248C91.5543 20.3552 91.5079 20.1504 91.5079 19.9104V18.3552H92.0503V19.8288C92.0503 20.0656 92.1095 20.248 92.2279 20.376C92.3463 20.5008 92.5079 20.5632 92.7127 20.5632C92.9175 20.5632 93.0791 20.5008 93.1975 20.376C93.3191 20.248 93.3799 20.0656 93.3799 19.8288V18.3552H93.9271ZM95.1963 17.448V21H94.6491V17.448H95.1963ZM96.5531 18.8016V20.2656C96.5531 20.3648 96.5755 20.4368 96.6203 20.4816C96.6683 20.5232 96.7483 20.544 96.8603 20.544H97.1963V21H96.7643C96.5179 21 96.3291 20.9424 96.1979 20.8272C96.0667 20.712 96.0011 20.5248 96.0011 20.2656V18.8016H95.6891V18.3552H96.0011V17.6976H96.5531V18.3552H97.1963V18.8016H96.5531ZM100.096 18.3552V21H99.5486V20.688C99.4622 20.7968 99.3486 20.8832 99.2078 20.9472C99.0702 21.008 98.923 21.0384 98.7662 21.0384C98.5582 21.0384 98.371 20.9952 98.2046 20.9088C98.0414 20.8224 97.9118 20.6944 97.8158 20.5248C97.723 20.3552 97.6766 20.1504 97.6766 19.9104V18.3552H98.219V19.8288C98.219 20.0656 98.2782 20.248 98.3966 20.376C98.515 20.5008 98.6766 20.5632 98.8814 20.5632C99.0862 20.5632 99.2478 20.5008 99.3662 20.376C99.4878 20.248 99.5486 20.0656 99.5486 19.8288V18.3552H100.096ZM101.365 18.7392C101.445 18.6048 101.551 18.5008 101.682 18.4272C101.816 18.3504 101.975 18.312 102.157 18.312V18.8784H102.018C101.803 18.8784 101.64 18.9328 101.528 19.0416C101.419 19.1504 101.365 19.3392 101.365 19.608V21H100.818V18.3552H101.365V18.7392ZM105.084 19.6128C105.084 19.712 105.078 19.8016 105.065 19.8816H103.044C103.06 20.0928 103.138 20.2624 103.279 20.3904C103.42 20.5184 103.593 20.5824 103.798 20.5824C104.092 20.5824 104.3 20.4592 104.422 20.2128H105.012C104.932 20.456 104.786 20.656 104.575 20.8128C104.367 20.9664 104.108 21.0432 103.798 21.0432C103.545 21.0432 103.318 20.9872 103.116 20.8752C102.918 20.76 102.761 20.6 102.646 20.3952C102.534 20.1872 102.478 19.9472 102.478 19.6752C102.478 19.4032 102.532 19.1648 102.641 18.96C102.753 18.752 102.908 18.592 103.106 18.48C103.308 18.368 103.538 18.312 103.798 18.312C104.047 18.312 104.27 18.3664 104.465 18.4752C104.66 18.584 104.812 18.7376 104.921 18.936C105.03 19.1312 105.084 19.3568 105.084 19.6128ZM104.513 19.44C104.51 19.2384 104.438 19.0768 104.297 18.9552C104.156 18.8336 103.982 18.7728 103.774 18.7728C103.585 18.7728 103.423 18.8336 103.289 18.9552C103.154 19.0736 103.074 19.2352 103.049 19.44H104.513Z" fill="#005D45"></path><path d="M137.599 13.57C137.599 20.2956 131.957 25.7483 124.999 25.7483C118.04 25.7483 112.4 20.2956 112.4 13.57C112.4 6.84443 118.042 1.39185 125.001 1.39185C131.959 1.39185 137.6 6.84443 137.6 13.57" fill="#008034"></path><path d="M138.299 14.3918C138.299 21.5713 132.344 27.3918 124.998 27.3918C117.654 27.3918 111.7 21.5713 111.7 14.3918C111.7 7.21238 117.655 1.39185 125 1.39185C132.345 1.39185 138.3 7.21238 138.3 14.3918" fill="url(#paint0_radial_1446_2456)"></path><path d="M125.001 27.14C117.281 27.14 111 21.0529 111 13.57C111 6.08707 117.281 0 125.001 0C132.721 0 139 6.08707 139 13.57C139 21.0529 132.721 27.14 125.001 27.14ZM125.001 0.783503C117.728 0.783503 111.813 6.5199 111.813 13.57C111.813 20.6201 117.728 26.3565 125.001 26.3565C132.274 26.3565 138.188 20.6201 138.188 13.57C138.188 6.5199 132.272 0.783503 125.001 0.783503Z" fill="url(#paint1_linear_1446_2456)"></path><path d="M132.618 19.0019C132.652 19.0199 132.714 19.0547 132.698 19.1103C132.688 19.145 132.655 19.1631 132.599 19.1631C132.578 19.1631 132.557 19.1603 132.549 19.1589C132.233 19.0825 131.894 19.045 131.542 19.045C129.733 19.045 127.395 20.3322 125.522 21.6138C125.895 21.9044 126.295 22.2366 126.681 22.5772C126.737 22.5313 126.756 22.5188 126.809 22.4771C126.975 22.3464 127.134 22.2561 127.294 22.2019C127.389 22.1685 127.485 22.1616 127.578 22.1797C127.757 22.2144 127.875 22.3812 127.856 22.5772C127.839 22.7454 127.717 22.8747 127.57 22.8803C127.454 22.8831 127.351 22.8288 127.292 22.7329C127.22 22.7885 127.152 22.8413 127.09 22.897C127.061 22.9233 127.033 22.9497 127.005 22.9762L127.121 23.0721C127.212 23.1471 127.301 23.2208 127.391 23.2917C127.567 23.4307 127.76 23.5711 127.976 23.6614C128.044 23.6893 128.133 23.7226 128.216 23.7157C128.258 23.7129 128.302 23.7004 128.349 23.6879L128.381 23.6795C128.381 23.6795 128.39 23.6768 128.395 23.674C128.421 23.6629 128.448 23.6504 128.48 23.6448C128.492 23.6434 128.505 23.6406 128.52 23.6406C128.587 23.6406 128.645 23.6726 128.679 23.7282C128.715 23.7866 128.726 23.8783 128.707 23.9534C128.691 24.0145 128.655 24.0576 128.621 24.0952C128.48 24.2453 128.309 24.3315 128.114 24.3509C128.078 24.3551 128.041 24.3565 128.005 24.3565C127.968 24.3565 127.931 24.3551 127.893 24.3509C127.744 24.3371 127.588 24.2926 127.415 24.2175C127.158 24.1049 126.903 23.952 126.613 23.7352L126.376 23.5558C126.298 23.6267 126.217 23.6976 126.135 23.7671C126.037 23.8491 125.917 23.9409 125.765 23.9895C125.724 24.0034 125.68 24.0104 125.633 24.0104C125.615 24.0104 125.599 24.0104 125.581 24.0076C125.561 24.0062 125.54 24.0034 125.519 23.9979C125.39 23.9743 125.287 23.8617 125.262 23.7198C125.237 23.5697 125.296 23.421 125.41 23.3487C125.522 23.2792 125.66 23.2931 125.765 23.3862C125.78 23.3987 125.792 23.4126 125.803 23.4265C125.865 23.3681 125.926 23.307 125.986 23.243C125.594 22.9094 125.091 22.5661 124.634 22.2255C124.182 22.5661 123.707 22.9094 123.315 23.243C123.376 23.307 123.436 23.3681 123.498 23.4265C123.51 23.4113 123.523 23.3974 123.536 23.3862C123.641 23.2945 123.78 23.2792 123.891 23.3487C124.005 23.4196 124.065 23.5684 124.04 23.7198C124.017 23.8617 123.911 23.9729 123.782 23.9979C123.761 24.0021 123.741 24.0049 123.721 24.0076C123.703 24.009 123.685 24.0104 123.669 24.0104C123.621 24.0104 123.579 24.0034 123.536 23.9895C123.385 23.9409 123.264 23.8505 123.167 23.7671C123.084 23.6976 123.003 23.6267 122.925 23.5558L122.688 23.7352C122.399 23.9506 122.143 24.1049 121.886 24.2175C121.712 24.2926 121.556 24.3371 121.408 24.3509C121.371 24.3551 121.334 24.3565 121.297 24.3565C121.26 24.3565 121.223 24.3551 121.188 24.3509C120.992 24.3315 120.82 24.2453 120.68 24.0952C120.646 24.0576 120.611 24.0159 120.594 23.9534C120.574 23.8783 120.586 23.7879 120.621 23.7282C120.655 23.6712 120.712 23.6406 120.78 23.6406C120.795 23.6406 120.808 23.642 120.82 23.6448C120.852 23.6504 120.88 23.6629 120.905 23.674C120.909 23.6754 120.914 23.6781 120.918 23.6795L120.951 23.6879C120.998 23.7004 121.044 23.7115 121.083 23.7157C121.167 23.7226 121.257 23.6893 121.323 23.6614C121.54 23.5711 121.734 23.4307 121.909 23.2917C121.999 23.2208 122.089 23.1471 122.179 23.0721L122.295 22.9762C122.267 22.9497 122.239 22.9233 122.21 22.897C122.148 22.8413 122.08 22.7871 122.008 22.7329C121.948 22.8302 121.846 22.8831 121.73 22.8803C121.584 22.8747 121.46 22.7454 121.444 22.5772C121.425 22.3812 121.543 22.2144 121.722 22.1797C121.815 22.1616 121.911 22.1685 122.006 22.2019C122.165 22.2575 122.325 22.3464 122.491 22.4771C122.544 22.5188 122.563 22.5313 122.619 22.5772C123.017 22.2269 123.404 21.9086 123.782 21.6167C121.909 20.3336 119.57 19.045 117.759 19.045C117.407 19.045 117.068 19.0839 116.752 19.1589C116.745 19.1603 116.724 19.1631 116.702 19.1631C116.647 19.1631 116.613 19.145 116.603 19.1103C116.587 19.0547 116.651 19.0199 116.683 19.0019C116.796 18.9393 117.425 18.7072 118.415 18.7072C119.811 18.7072 121.918 19.0867 124.594 20.9383L124.649 20.9786L124.661 20.9702C127.337 19.1173 129.478 18.7072 130.874 18.7072C131.865 18.7072 132.494 18.9393 132.606 19.0019M125.44 18.2068C125.278 18.4611 125.054 19.1562 125.054 19.1659C125.291 18.9852 126.002 18.849 126.307 18.7878C128.488 18.3443 128.623 16.4789 128.689 16.1133C128.632 16.2175 128.477 16.4371 127.143 16.4942C126.445 16.5248 125.287 16.6054 124.684 17.6855C124.789 17.8842 124.871 18.1067 124.933 18.3513C125.682 16.6651 127.529 16.8959 127.843 16.8333C127.53 16.9612 126.192 17.0238 125.438 18.2068M124.618 20.1821L124.947 20.0291C124.867 16.7221 122.969 16.5345 122.052 16.4942C120.718 16.4371 120.563 16.2161 120.508 16.1133C120.573 16.4789 120.71 18.3443 122.89 18.7878C123.201 18.8518 123.663 18.9115 123.885 19.0978C123.631 16.9362 121.736 16.9904 121.354 16.8333C121.714 16.9042 124.414 16.3663 124.289 20.0291L124.618 20.1821ZM123.511 10.6558C123.452 9.70912 124.599 8.02712 124.599 8.02712C124.599 8.02712 125.699 9.7508 125.687 10.6558C125.678 11.3091 125.2 11.8388 124.599 11.8388C123.998 11.8388 123.553 11.3077 123.511 10.6558ZM125.072 11.4314C125.022 11.4398 124.968 11.4453 124.917 11.4453C124.348 11.4453 123.886 10.9435 123.886 10.3249C123.886 10.236 123.909 10.122 123.944 9.9913C123.832 10.2693 123.751 10.5237 123.751 10.6808C123.751 11.1854 124.128 11.5955 124.592 11.5955C124.77 11.5955 124.936 11.5343 125.072 11.4314ZM121.609 14.1518C121.609 16.0368 124.447 16.6387 124.447 16.6387V16.0535C124.447 14.0976 121.609 13.5666 121.609 13.5666V14.1518ZM124.741 16.0549V16.6401C124.741 16.6401 127.579 16.0382 127.579 14.1532V13.568C127.579 13.568 124.741 14.099 124.741 16.0549ZM122.325 12.0306C122.325 13.5639 124.483 14.0531 124.483 14.0531V13.5778C124.483 11.9875 122.325 11.5552 122.325 11.5552V12.0306ZM124.705 13.5778V14.0531C124.705 14.0531 126.863 13.5639 126.863 12.0306V11.5552C126.863 11.5552 124.705 11.9861 124.705 13.5763M117.048 8.76663C118.922 6.98872 120.126 6.67314 121.626 6.45074C120.091 7.37097 118.657 9.51035 119.103 11.0172C119.915 9.41861 121.329 7.85749 122.635 7.28761C121.897 8.26486 121.872 9.48256 122.584 10.5209C122.749 9.17254 123.75 7.877 124.586 7.00818C125.422 7.87559 126.423 9.17254 126.586 10.5209C127.298 9.48116 127.274 8.26486 126.535 7.28761C127.841 7.85613 129.256 9.41861 130.067 11.0172C130.515 9.51035 129.079 7.37097 127.546 6.45074C129.044 6.67178 130.248 6.98872 132.122 8.76663C131.504 6.3882 129.325 5.56387 127.583 5.27056C129.5 5.11487 129.88 5.29975 131.573 5.96142C129.736 4.25579 128.448 3.94857 126.607 4.11402C126.922 3.85406 127.224 3.71366 127.688 3.59829C126.916 3.31192 125.708 3.46205 125.238 3.88742C125.238 3.88742 125.146 3.10619 124.592 2.79064V2.78369L124.586 2.78786C124.585 2.78647 124.582 2.78508 124.58 2.78369V2.79064C124.026 3.10619 123.934 3.88742 123.934 3.88742C123.464 3.46205 122.255 3.31192 121.484 3.59829C121.948 3.71366 122.25 3.85406 122.565 4.11402C120.724 3.94857 119.436 4.25579 117.599 5.96142C119.291 5.29975 119.671 5.11628 121.588 5.27056C119.847 5.56387 117.669 6.3882 117.049 8.76663" fill="url(#paint2_linear_1446_2456)"></path><defs><radialGradient id="paint0_radial_1446_2456" cx="0" cy="0" r="1" gradientUnits="userSpaceOnUse" gradientTransform="translate(124.309 13.6171) scale(14.5475 13.6508)"><stop stop-opacity="0"></stop><stop offset="0.12" stop-opacity="0"></stop><stop offset="0.15" stop-opacity="0"></stop><stop offset="0.87" stop-opacity="0.2916"></stop><stop offset="1"></stop></radialGradient><linearGradient id="paint1_linear_1446_2456" x1="114.084" y1="19.1937" x2="138.46" y2="5.82937" gradientUnits="userSpaceOnUse"><stop stop-color="#C68D00"></stop><stop offset="0.25" stop-color="#FFD740"></stop><stop offset="0.34" stop-color="#F4C833"></stop><stop offset="0.51" stop-color="#D7A313"></stop><stop offset="0.6" stop-color="#C68D00"></stop><stop offset="1" stop-color="#FFD740"></stop></linearGradient><linearGradient id="paint2_linear_1446_2456" x1="120.696" y1="3.61636" x2="127.909" y2="24.8609" gradientUnits="userSpaceOnUse"><stop stop-color="#C68D00"></stop><stop offset="0.05" stop-color="#D2A32A"></stop><stop offset="0.1" stop-color="#DFB955"></stop><stop offset="0.16" stop-color="#EACC78"></stop><stop offset="0.22" stop-color="#F2DA94"></stop><stop offset="0.27" stop-color="#F8E4A8"></stop><stop offset="0.33" stop-color="#FBEAB4"></stop><stop offset="0.39" stop-color="#FDEDB8"></stop><stop offset="0.58" stop-color="#FDEDB8"></stop><stop offset="0.65" stop-color="#F5E09F"></stop><stop offset="0.79" stop-color="#E3C061"></stop><stop offset="1" stop-color="#C68D00"></stop></linearGradient></defs></svg>